# xmcd CD database file
#
# Track frame offsets:
#	150
#	18882
#	46985
#	72628
#	92246
#	111506
#	132080
#	156482
#	173857
#	203048
#
# Disc length: 3356 seconds
#
# Revision: 0
# Processed by: cddbd v1.5.1PL0 Copyright (c) Steve Scherf et al.
# Submitted via: CDex 1.51
#
DISCID=8d0d1a0a
DTITLE=熱帯JAZZ楽団 - 熱帯JAZZ楽団V〜La Noche Tropical〜
DYEAR=2001
DGENRE=Jazz
TTITLE0=CARA DE PAYASO
TTITLE1=NICA'S DREAM
TTITLE2=DON'T STOP 'TIL YOU GET ENOUGH
TTITLE3=ALMA ETERNA
TTITLE4=I COULD HAVE DANCED ALL NIGHT
TTITLE5=11PM
TTITLE6=EL MORRO
TTITLE7=007〜THE JAMES BOND THEME
TTITLE8=COMO VA
TTITLE9=ELEVEN〔LIVE VERSION〕
EXTD=YEAR: 2001
EXTT0=
EXTT1=
EXTT2=
EXTT3=
EXTT4=
EXTT5=
EXTT6=
EXTT7=
EXTT8=
EXTT9=
PLAYORDER=
